<svg width="60" height="44" viewBox="0 0 60 44" fill="none" xmlns="http://www.w3.org/2000/svg">
<path d="M9.05859 19.1353V43.5617L59.6552 43.5225V19.0961L9.05859 19.1353Z" fill="#0103C8"/>
<path d="M8.56885 19.1361V43.5624L59.8365 43.5227V19.0963L8.56885 19.1361Z" fill="#0103C8"/>
<path d="M0 0.039772V24.4662L51.2677 24.4264V8.95688e-07L0 0.039772Z" fill="#0103C8"/>
<path d="M14.2296 9.83465V10.5512H13.513V9.83465H14.2296ZM14.2296 9.1181V9.83465H13.513V9.1181H14.2296ZM14.2296 8.40155V9.1181H13.513V8.40155H14.2296ZM13.513 8.40155V9.1181H12.7964V8.40155H13.513ZM13.513 7.68498V8.40155H12.7964V7.68498H13.513ZM13.513 9.1181V9.83465H12.7964V9.1181H13.513ZM12.7964 9.1181V9.83465H12.0799V9.1181H12.7964ZM12.7964 9.83465V10.5512H12.0799V9.83465H12.7964ZM13.513 9.83465V10.5512H12.7964V9.83465H13.513ZM12.0799 9.83465V10.5512H11.3633V9.83465H12.0799ZM12.0799 9.1181V9.83465H11.3633V9.1181H12.0799ZM12.0799 8.40155V9.1181H11.3633V8.40155H12.0799ZM12.0799 7.68498V8.40155H11.3633V7.68498H12.0799ZM12.7964 7.68498V8.40155H12.0799V7.68498H12.7964ZM12.7964 8.40155V9.1181H12.0799V8.40155H12.7964ZM11.3633 7.68498V8.40155H10.6468V7.68498H11.3633ZM10.6468 7.68498V8.40155H9.93022V7.68498H10.6468ZM9.93022 7.68498V8.40155H9.21364V7.68498H9.93022ZM9.93022 8.40155V9.1181H9.21364V8.40155H9.93022ZM9.93022 9.1181V9.83465H9.21364V9.1181H9.93022ZM9.93022 9.83465V10.5512H9.21364V9.83465H9.93022ZM10.6468 9.83465V10.5512H9.93022V9.83465H10.6468ZM11.3633 9.83465V10.5512H10.6468V9.83465H11.3633ZM11.3633 9.1181V9.83465H10.6468V9.1181H11.3633ZM11.3633 8.40155V9.1181H10.6468V8.40155H11.3633ZM10.6468 8.40155V9.1181H9.93022V8.40155H10.6468ZM10.6468 9.1181V9.83465H9.93022V9.1181H10.6468ZM9.21364 9.1181V9.83465H8.49709V9.1181H9.21364ZM9.21364 8.40155V9.1181H8.49709V8.40155H9.21364ZM8.49709 8.40155V9.1181H7.78054V8.40155H8.49709ZM8.49709 9.1181V9.83465H7.78054V9.1181H8.49709ZM7.78054 9.1181V9.83465H7.06399V9.1181H7.78054ZM7.78054 9.83465V10.5512H7.06399V9.83465H7.78054ZM7.78054 10.5512V11.2678H7.06399V10.5512H7.78054ZM8.49709 10.5512V11.2678H7.78054V10.5512H8.49709ZM8.49709 9.83465V10.5512H7.78054V9.83465H8.49709ZM9.21364 9.83465V10.5512H8.49709V9.83465H9.21364ZM9.21364 10.5512V11.2678H8.49709V10.5512H9.21364ZM9.93022 10.5512V11.2678H9.21364V10.5512H9.93022ZM10.6468 10.5512V11.2678H9.93022V10.5512H10.6468ZM7.06399 10.5512V11.2678H6.34741V10.5512H7.06399ZM7.06399 11.2678V11.9843H6.34741V11.2678H7.06399ZM7.06399 11.9843V12.7009H6.34741V11.9843H7.06399ZM7.06399 12.7009V13.4175H6.34741V12.7009H7.06399ZM7.06399 13.4175V14.134H6.34741V13.4175H7.06399ZM7.06399 14.134V14.8506H6.34741V14.134H7.06399ZM7.06399 14.8506V15.5671H6.34741V14.8506H7.06399ZM7.06399 15.5671V16.2837H6.34741V15.5671H7.06399ZM7.06399 16.2837V17.0002H6.34741V16.2837H7.06399ZM7.06399 17.0002V17.7168H6.34741V17.0002H7.06399ZM7.78054 17.0002V17.7168H7.06399V17.0002H7.78054ZM7.78054 17.7168V18.4334H7.06399V17.7168H7.78054ZM7.06399 17.7168V18.4334H6.34741V17.7168H7.06399ZM8.49709 17.7168V18.4334H7.78054V17.7168H8.49709ZM9.21364 17.7168V18.4334H8.49709V17.7168H9.21364ZM9.93022 17.7168V18.4334H9.21364V17.7168H9.93022ZM10.6468 17.7168V18.4334H9.93022V17.7168H10.6468ZM9.93022 17.0002V17.7168H9.21364V17.0002H9.93022ZM9.93022 16.2837V17.0002H9.21364V16.2837H9.93022ZM9.93022 15.5671V16.2837H9.21364V15.5671H9.93022ZM9.93022 14.8506V15.5671H9.21364V14.8506H9.93022ZM9.93022 14.134V14.8506H9.21364V14.134H9.93022ZM9.93022 13.4175V14.134H9.21364V13.4175H9.93022ZM9.93022 12.7009V13.4175H9.21364V12.7009H9.93022ZM9.93022 11.9843V12.7009H9.21364V11.9843H9.93022ZM9.93022 11.2678V11.9843H9.21364V11.2678H9.93022ZM9.21364 11.2678V11.9843H8.49709V11.2678H9.21364ZM8.49709 11.2678V11.9843H7.78054V11.2678H8.49709ZM7.78054 11.2678V11.9843H7.06399V11.2678H7.78054ZM7.78054 11.9843V12.7009H7.06399V11.9843H7.78054ZM7.78054 12.7009V13.4175H7.06399V12.7009H7.78054ZM7.78054 13.4175V14.134H7.06399V13.4175H7.78054ZM7.78054 14.134V14.8506H7.06399V14.134H7.78054ZM7.78054 14.8506V15.5671H7.06399V14.8506H7.78054ZM7.78054 15.5671V16.2837H7.06399V15.5671H7.78054ZM7.78054 16.2837V17.0002H7.06399V16.2837H7.78054ZM8.49709 17.0002V17.7168H7.78054V17.0002H8.49709ZM9.21364 17.0002V17.7168H8.49709V17.0002H9.21364ZM9.21364 16.2837V17.0002H8.49709V16.2837H9.21364ZM9.21364 15.5671V16.2837H8.49709V15.5671H9.21364ZM9.21364 14.8506V15.5671H8.49709V14.8506H9.21364ZM9.21364 14.134V14.8506H8.49709V14.134H9.21364ZM8.49709 14.134V14.8506H7.78054V14.134H8.49709ZM8.49709 13.4175V14.134H7.78054V13.4175H8.49709ZM8.49709 12.7009V13.4175H7.78054V12.7009H8.49709ZM8.49709 11.9843V12.7009H7.78054V11.9843H8.49709ZM9.21364 11.9843V12.7009H8.49709V11.9843H9.21364ZM9.21364 12.7009V13.4175H8.49709V12.7009H9.21364ZM9.21364 13.4175V14.134H8.49709V13.4175H9.21364ZM8.49709 15.5671V16.2837H7.78054V15.5671H8.49709ZM8.49709 16.2837V17.0002H7.78054V16.2837H8.49709ZM8.49709 14.8506V15.5671H7.78054V14.8506H8.49709ZM14.2296 18.4334V19.1499H13.513V18.4334H14.2296ZM13.513 20.583V21.2996H12.7964V20.583H13.513ZM12.7964 20.583V21.2996H12.0799V20.583H12.7964ZM12.0799 20.583V21.2996H11.3633V20.583H12.0799ZM11.3633 20.583V21.2996H10.6468V20.583H11.3633ZM10.6468 20.583V21.2996H9.93022V20.583H10.6468ZM9.93022 20.583V21.2996H9.21364V20.583H9.93022ZM10.6468 19.8665V20.583H9.93022V19.8665H10.6468ZM11.3633 19.8665V20.583H10.6468V19.8665H11.3633ZM12.0799 19.8665V20.583H11.3633V19.8665H12.0799ZM12.7964 19.8665V20.583H12.0799V19.8665H12.7964ZM13.513 19.8665V20.583H12.7964V19.8665H13.513ZM14.2296 19.8665V20.583H13.513V19.8665H14.2296ZM14.2296 19.1499V19.8665H13.513V19.1499H14.2296ZM13.513 19.1499V19.8665H12.7964V19.1499H13.513ZM12.7964 19.1499V19.8665H12.0799V19.1499H12.7964ZM12.0799 19.1499V19.8665H11.3633V19.1499H12.0799ZM11.3633 19.1499V19.8665H10.6468V19.1499H11.3633ZM10.6468 19.1499V19.8665H9.93022V19.1499H10.6468ZM9.93022 19.8665V20.583H9.21364V19.8665H9.93022ZM9.21364 19.8665V20.583H8.49709V19.8665H9.21364ZM8.49709 19.8665V20.583H7.78054V19.8665H8.49709ZM8.49709 19.1499V19.8665H7.78054V19.1499H8.49709ZM7.78054 19.1499V19.8665H7.06399V19.1499H7.78054ZM7.78054 18.4334V19.1499H7.06399V18.4334H7.78054ZM8.49709 18.4334V19.1499H7.78054V18.4334H8.49709ZM9.21364 18.4334V19.1499H8.49709V18.4334H9.21364ZM9.93022 18.4334V19.1499H9.21364V18.4334H9.93022ZM10.6468 18.4334V19.1499H9.93022V18.4334H10.6468ZM11.3633 18.4334V19.1499H10.6468V18.4334H11.3633ZM12.0799 18.4334V19.1499H11.3633V18.4334H12.0799ZM12.7964 18.4334V19.1499H12.0799V18.4334H12.7964ZM13.513 18.4334V19.1499H12.7964V18.4334H13.513ZM9.93022 19.1499V19.8665H9.21364V19.1499H9.93022ZM9.21364 19.1499V19.8665H8.49709V19.1499H9.21364ZM14.9461 19.1499V19.8665H14.2296V19.1499H14.9461ZM14.9461 18.4334V19.1499H14.2296V18.4334H14.9461ZM14.9461 17.7168V18.4334H14.2296V17.7168H14.9461ZM14.9461 17.0002V17.7168H14.2296V17.0002H14.9461ZM14.9461 16.2837V17.0002H14.2296V16.2837H14.9461ZM14.9461 15.5671V16.2837H14.2296V15.5671H14.9461ZM14.9461 14.8506V15.5671H14.2296V14.8506H14.9461ZM14.9461 14.134V14.8506H14.2296V14.134H14.9461ZM14.9461 13.4175V14.134H14.2296V13.4175H14.9461ZM14.9461 12.7009V13.4175H14.2296V12.7009H14.9461ZM14.9461 11.9843V12.7009H14.2296V11.9843H14.9461ZM14.9461 11.2678V11.9843H14.2296V11.2678H14.9461ZM14.9461 10.5512V11.2678H14.2296V10.5512H14.9461ZM15.6627 10.5512V11.2678H14.9461V10.5512H15.6627ZM15.6627 11.2678V11.9843H14.9461V11.2678H15.6627ZM15.6627 11.9843V12.7009H14.9461V11.9843H15.6627ZM15.6627 12.7009V13.4175H14.9461V12.7009H15.6627ZM15.6627 13.4175V14.134H14.9461V13.4175H15.6627ZM15.6627 14.134V14.8506H14.9461V14.134H15.6627ZM15.6627 14.8506V15.5671H14.9461V14.8506H15.6627ZM16.3792 15.5671V16.2837H15.6627V15.5671H16.3792ZM16.3792 16.2837V17.0002H15.6627V16.2837H16.3792ZM16.3792 17.0002V17.7168H15.6627V17.0002H16.3792ZM16.3792 17.7168V18.4334H15.6627V17.7168H16.3792ZM16.3792 18.4334V19.1499H15.6627V18.4334H16.3792ZM16.3792 19.1499V19.8665H15.6627V19.1499H16.3792ZM16.3792 19.8665V20.583H15.6627V19.8665H16.3792ZM16.3792 20.583V21.2996H15.6627V20.583H16.3792ZM17.0958 20.583V21.2996H16.3792V20.583H17.0958ZM17.8124 20.583V21.2996H17.0958V20.583H17.8124ZM17.8124 19.8665V20.583H17.0958V19.8665H17.8124ZM17.8124 19.1499V19.8665H17.0958V19.1499H17.8124ZM17.8124 18.4334V19.1499H17.0958V18.4334H17.8124ZM17.8124 17.7168V18.4334H17.0958V17.7168H17.8124ZM17.8124 17.0002V17.7168H17.0958V17.0002H17.8124ZM17.8124 16.2837V17.0002H17.0958V16.2837H17.8124ZM17.8124 15.5671V16.2837H17.0958V15.5671H17.8124ZM17.0958 15.5671V16.2837H16.3792V15.5671H17.0958ZM17.0958 14.8506V15.5671H16.3792V14.8506H17.0958ZM17.0958 16.2837V17.0002H16.3792V16.2837H17.0958ZM17.0958 17.0002V17.7168H16.3792V17.0002H17.0958ZM17.0958 17.7168V18.4334H16.3792V17.7168H17.0958ZM17.0958 18.4334V19.1499H16.3792V18.4334H17.0958ZM17.0958 19.1499V19.8665H16.3792V19.1499H17.0958ZM17.0958 19.8665V20.583H16.3792V19.8665H17.0958ZM15.6627 19.1499V19.8665H14.9461V19.1499H15.6627ZM15.6627 18.4334V19.1499H14.9461V18.4334H15.6627ZM15.6627 17.7168V18.4334H14.9461V17.7168H15.6627ZM15.6627 17.0002V17.7168H14.9461V17.0002H15.6627ZM15.6627 16.2837V17.0002H14.9461V16.2837H15.6627ZM15.6627 15.5671V16.2837H14.9461V15.5671H15.6627ZM14.9461 3.38564V4.10219H14.2296V3.38564H14.9461ZM14.9461 4.10219V4.81875H14.2296V4.10219H14.9461ZM14.9461 4.81875V5.53532H14.2296V4.81875H14.9461ZM14.9461 5.53532V6.25187H14.2296V5.53532H14.9461ZM14.9461 6.25187V6.96842H14.2296V6.25187H14.9461ZM14.9461 6.96842V7.68498H14.2296V6.96842H14.9461ZM14.9461 8.40155V9.1181H14.2296V8.40155H14.9461ZM14.9461 9.83465V10.5512H14.2296V9.83465H14.9461ZM17.0958 3.38564V4.10219H16.3792V3.38564H17.0958ZM17.0958 4.10219V4.81875H16.3792V4.10219H17.0958ZM17.0958 4.81875V5.53532H16.3792V4.81875H17.0958ZM17.0958 5.53532V6.25187H16.3792V5.53532H17.0958ZM17.0958 6.25187V6.96842H16.3792V6.25187H17.0958ZM17.0958 6.96842V7.68498H16.3792V6.96842H17.0958ZM17.0958 8.40155V9.1181H16.3792V8.40155H17.0958ZM17.0958 9.1181V9.83465H16.3792V9.1181H17.0958ZM17.0958 9.83465V10.5512H16.3792V9.83465H17.0958ZM17.0958 11.2678V11.9843H16.3792V11.2678H17.0958ZM17.0958 11.9843V12.7009H16.3792V11.9843H17.0958ZM17.0958 12.7009V13.4175H16.3792V12.7009H17.0958ZM17.8124 13.4175V14.134H17.0958V13.4175H17.8124ZM17.8124 14.134V14.8506H17.0958V14.134H17.8124ZM17.8124 14.8506V15.5671H17.0958V14.8506H17.8124ZM17.8124 12.7009V13.4175H17.0958V12.7009H17.8124ZM17.8124 11.9843V12.7009H17.0958V11.9843H17.8124ZM17.8124 10.5512V11.2678H17.0958V10.5512H17.8124ZM17.8124 9.83465V10.5512H17.0958V9.83465H17.8124ZM17.8124 9.1181V9.83465H17.0958V9.1181H17.8124ZM17.8124 8.40155V9.1181H17.0958V8.40155H17.8124ZM17.8124 7.68498V8.40155H17.0958V7.68498H17.8124ZM17.8124 6.96842V7.68498H17.0958V6.96842H17.8124ZM17.8124 6.25187V6.96842H17.0958V6.25187H17.8124ZM17.0958 7.68498V8.40155H16.3792V7.68498H17.0958ZM17.8124 5.53532V6.25187H17.0958V5.53532H17.8124ZM17.8124 4.81875V5.53532H17.0958V4.81875H17.8124ZM17.8124 4.10219V4.81875H17.0958V4.10219H17.8124ZM17.8124 3.38564V4.10219H17.0958V3.38564H17.8124ZM16.3792 3.38564V4.10219H15.6627V3.38564H16.3792ZM15.6627 3.38564V4.10219H14.9461V3.38564H15.6627ZM15.6627 4.10219V4.81875H14.9461V4.10219H15.6627ZM16.3792 4.10219V4.81875H15.6627V4.10219H16.3792ZM16.3792 4.81875V5.53532H15.6627V4.81875H16.3792ZM16.3792 5.53532V6.25187H15.6627V5.53532H16.3792ZM16.3792 6.25187V6.96842H15.6627V6.25187H16.3792ZM16.3792 6.96842V7.68498H15.6627V6.96842H16.3792ZM16.3792 7.68498V8.40155H15.6627V7.68498H16.3792ZM16.3792 8.40155V9.1181H15.6627V8.40155H16.3792ZM15.6627 9.1181V9.83465H14.9461V9.1181H15.6627ZM15.6627 9.83465V10.5512H14.9461V9.83465H15.6627ZM15.6627 8.40155V9.1181H14.9461V8.40155H15.6627ZM15.6627 7.68498V8.40155H14.9461V7.68498H15.6627ZM15.6627 6.96842V7.68498H14.9461V6.96842H15.6627ZM15.6627 6.25187V6.96842H14.9461V6.25187H15.6627ZM15.6627 5.53532V6.25187H14.9461V5.53532H15.6627ZM15.6627 4.81875V5.53532H14.9461V4.81875H15.6627ZM16.3792 9.83465V10.5512H15.6627V9.83465H16.3792ZM16.3792 11.2678V11.9843H15.6627V11.2678H16.3792ZM16.3792 11.9843V12.7009H15.6627V11.9843H16.3792ZM16.3792 12.7009V13.4175H15.6627V12.7009H16.3792ZM16.3792 13.4175V14.134H15.6627V13.4175H16.3792ZM16.3792 14.134V14.8506H15.6627V14.134H16.3792ZM16.3792 14.8506V15.5671H15.6627V14.8506H16.3792ZM17.0958 14.134V14.8506H16.3792V14.134H17.0958ZM17.0958 13.4175V14.134H16.3792V13.4175H17.0958ZM14.9461 7.68498V8.40155H14.2296V7.68498H14.9461ZM17.8124 11.2678V11.9843H17.0958V11.2678H17.8124ZM14.9461 9.1181V9.83465H14.2296V9.1181H14.9461ZM16.3792 9.1181V9.83465H15.6627V9.1181H16.3792ZM16.3792 10.5512V11.2678H15.6627V10.5512H16.3792ZM17.0958 10.5512V11.2678H16.3792V10.5512H17.0958ZM14.9461 19.8665V20.583H14.2296V19.8665H14.9461ZM15.6627 19.8665V20.583H14.9461V19.8665H15.6627ZM15.6627 20.583V21.2996H14.9461V20.583H15.6627ZM14.2296 7.68498V8.40155H13.513V7.68498H14.2296ZM14.2296 17.7168V18.4334H13.513V17.7168H14.2296ZM14.9461 20.583V21.2996H14.2296V20.583H14.9461Z" fill="#FCFFFC"/>
<path d="M21.0012 17.4063V18.1229H20.2847V17.4063H21.0012ZM21.7178 17.4063V18.1229H21.0012V17.4063H21.7178ZM22.4343 17.4063V18.1229H21.7178V17.4063H22.4343ZM23.1509 17.4063V18.1229H22.4343V17.4063H23.1509ZM23.8674 17.4063V18.1229H23.1509V17.4063H23.8674ZM24.5841 17.4063V18.1229H23.8674V17.4063H24.5841ZM25.3005 17.4063V18.1229H24.5841V17.4063H25.3005ZM26.0171 17.4063V18.1229H25.3005V17.4063H26.0171ZM26.7337 17.4063V18.1229H26.0171V17.4063H26.7337ZM27.4503 17.4063V18.1229H26.7337V17.4063H27.4503ZM28.1669 17.4063V18.1229H27.4503V17.4063H28.1669ZM28.8835 17.4063V18.1229H28.1669V17.4063H28.8835ZM29.5998 17.4063V18.1229H28.8835V17.4063H29.5998ZM30.3164 17.4063V18.1229H29.5998V17.4063H30.3164ZM31.033 17.4063V18.1229H30.3164V17.4063H31.033ZM31.033 18.1229V18.8394H30.3164V18.1229H31.033ZM31.033 18.8394V19.556H30.3164V18.8394H31.033ZM31.033 19.556V20.2725H30.3164V19.556H31.033ZM31.033 20.2725V20.9891H30.3164V20.2725H31.033ZM30.3164 20.2725V20.9891H29.5998V20.2725H30.3164ZM29.5998 20.2725V20.9891H28.8835V20.2725H29.5998ZM28.8835 20.2725V20.9891H28.1669V20.2725H28.8835ZM28.1669 20.2725V20.9891H27.4503V20.2725H28.1669ZM27.4503 20.2725V20.9891H26.7337V20.2725H27.4503ZM26.7337 20.2725V20.9891H26.0171V20.2725H26.7337ZM26.0171 20.2725V20.9891H25.3005V20.2725H26.0171ZM25.3005 20.2725V20.9891H24.5841V20.2725H25.3005ZM24.5841 20.2725V20.9891H23.8674V20.2725H24.5841ZM23.8674 20.2725V20.9891H23.1509V20.2725H23.8674ZM23.1509 20.2725V20.9891H22.4343V20.2725H23.1509ZM23.1509 19.556V20.2725H22.4343V19.556H23.1509ZM22.4343 19.556V20.2725H21.7178V19.556H22.4343ZM21.7178 19.556V20.2725H21.0012V19.556H21.7178ZM21.0012 19.556V20.2725H20.2847V19.556H21.0012ZM21.0012 20.2725V20.9891H20.2847V20.2725H21.0012ZM21.7178 20.2725V20.9891H21.0012V20.2725H21.7178ZM22.4343 20.2725V20.9891H21.7178V20.2725H22.4343ZM21.0012 18.8394V19.556H20.2847V18.8394H21.0012ZM21.0012 18.1229V18.8394H20.2847V18.1229H21.0012ZM21.7178 18.1229V18.8394H21.0012V18.1229H21.7178ZM22.4343 18.1229V18.8394H21.7178V18.1229H22.4343ZM23.1509 18.1229V18.8394H22.4343V18.1229H23.1509ZM23.8674 18.8394V19.556H23.1509V18.8394H23.8674ZM24.5841 18.8394V19.556H23.8674V18.8394H24.5841ZM25.3005 18.8394V19.556H24.5841V18.8394H25.3005ZM26.0171 18.8394V19.556H25.3005V18.8394H26.0171ZM26.7337 18.8394V19.556H26.0171V18.8394H26.7337ZM27.4503 18.8394V19.556H26.7337V18.8394H27.4503ZM28.1669 18.8394V19.556H27.4503V18.8394H28.1669ZM28.8835 18.8394V19.556H28.1669V18.8394H28.8835ZM29.5998 18.8394V19.556H28.8835V18.8394H29.5998ZM30.3164 18.8394V19.556H29.5998V18.8394H30.3164ZM30.3164 18.1229V18.8394H29.5998V18.1229H30.3164ZM29.5998 18.1229V18.8394H28.8835V18.1229H29.5998ZM26.0171 18.1229V18.8394H25.3005V18.1229H26.0171ZM25.3005 18.1229V18.8394H24.5841V18.1229H25.3005ZM24.5841 18.1229V18.8394H23.8674V18.1229H24.5841ZM23.8674 18.1229V18.8394H23.1509V18.1229H23.8674ZM26.7337 18.1229V18.8394H26.0171V18.1229H26.7337ZM27.4503 18.1229V18.8394H26.7337V18.1229H27.4503ZM28.1669 18.1229V18.8394H27.4503V18.1229H28.1669ZM28.8835 18.1229V18.8394H28.1669V18.1229H28.8835ZM29.5998 19.556V20.2725H28.8835V19.556H29.5998ZM30.3164 19.556V20.2725H29.5998V19.556H30.3164ZM28.8835 19.556V20.2725H28.1669V19.556H28.8835ZM28.1669 19.556V20.2725H27.4503V19.556H28.1669ZM27.4503 19.556V20.2725H26.7337V19.556H27.4503ZM26.7337 19.556V20.2725H26.0171V19.556H26.7337ZM26.0171 19.556V20.2725H25.3005V19.556H26.0171ZM25.3005 19.556V20.2725H24.5841V19.556H25.3005ZM24.5841 19.556V20.2725H23.8674V19.556H24.5841ZM23.8674 19.556V20.2725H23.1509V19.556H23.8674ZM23.1509 18.8394V19.556H22.4343V18.8394H23.1509ZM22.4343 18.8394V19.556H21.7178V18.8394H22.4343ZM21.7178 18.8394V19.556H21.0012V18.8394H21.7178Z" fill="#FCFFFC"/>
<path d="M41.1424 12.474V13.1906H40.4258V12.474H41.1424ZM41.859 12.474V13.1906H41.1424V12.474H41.859ZM42.5754 12.474V13.1906H41.859V12.474H42.5754ZM43.292 12.474V13.1906H42.5754V12.474H43.292ZM44.0086 12.474V13.1906H43.292V12.474H44.0086ZM44.0086 11.7574V12.474H43.292V11.7574H44.0086ZM44.0086 11.0409V11.7574H43.292V11.0409H44.0086ZM43.292 11.0409V11.7574H42.5754V11.0409H43.292ZM42.5754 11.0409V11.7574H41.859V11.0409H42.5754ZM41.859 11.0409V11.7574H41.1424V11.0409H41.859ZM41.859 11.7574V12.474H41.1424V11.7574H41.859ZM41.1424 11.7574V12.474H40.4258V11.7574H41.1424ZM42.5754 11.7574V12.474H41.859V11.7574H42.5754ZM43.292 11.7574V12.474H42.5754V11.7574H43.292ZM41.1424 11.0409V11.7574H40.4258V11.0409H41.1424ZM40.4258 11.0409V11.7574H39.7092V11.0409H40.4258ZM40.4258 10.3243V11.0409H39.7092V10.3243H40.4258ZM41.1424 10.3243V11.0409H40.4258V10.3243H41.1424ZM41.859 10.3243V11.0409H41.1424V10.3243H41.859ZM42.5754 10.3243V11.0409H41.859V10.3243H42.5754ZM43.292 10.3243V11.0409H42.5754V10.3243H43.292ZM43.292 9.60775V10.3243H42.5754V9.60775H43.292ZM42.5754 9.60775V10.3243H41.859V9.60775H42.5754ZM41.859 9.60775V10.3243H41.1424V9.60775H41.859ZM41.1424 9.60775V10.3243H40.4258V9.60775H41.1424ZM40.4258 9.60775V10.3243H39.7092V9.60775H40.4258ZM41.859 8.8912V9.60775H41.1424V8.8912H41.859ZM42.5754 8.8912V9.60775H41.859V8.8912H42.5754ZM41.1424 8.8912V9.60775H40.4258V8.8912H41.1424ZM41.1424 8.17462V8.8912H40.4258V8.17462H41.1424ZM40.4258 8.17462V8.8912H39.7092V8.17462H40.4258ZM40.4258 8.8912V9.60775H39.7092V8.8912H40.4258ZM39.7092 8.8912V9.60775H38.9926V8.8912H39.7092ZM39.7092 8.17462V8.8912H38.9926V8.17462H39.7092ZM39.7092 9.60775V10.3243H38.9926V9.60775H39.7092ZM38.9926 9.60775V10.3243H38.276V9.60775H38.9926ZM38.9926 10.3243V11.0409H38.276V10.3243H38.9926ZM39.7092 10.3243V11.0409H38.9926V10.3243H39.7092ZM38.276 10.3243V11.0409H37.5597V10.3243H38.276ZM38.276 9.60775V10.3243H37.5597V9.60775H38.276ZM38.276 8.8912V9.60775H37.5597V8.8912H38.276ZM38.276 8.17462V8.8912H37.5597V8.17462H38.276ZM38.9926 8.17462V8.8912H38.276V8.17462H38.9926ZM38.9926 8.8912V9.60775H38.276V8.8912H38.9926ZM37.5597 8.17462V8.8912H36.8431V8.17462H37.5597ZM36.8431 8.17462V8.8912H36.1265V8.17462H36.8431ZM36.1265 8.17462V8.8912H35.4099V8.17462H36.1265ZM36.1265 8.8912V9.60775H35.4099V8.8912H36.1265ZM36.1265 9.60775V10.3243H35.4099V9.60775H36.1265ZM36.1265 10.3243V11.0409H35.4099V10.3243H36.1265ZM36.8431 10.3243V11.0409H36.1265V10.3243H36.8431ZM37.5597 10.3243V11.0409H36.8431V10.3243H37.5597ZM37.5597 9.60775V10.3243H36.8431V9.60775H37.5597ZM37.5597 8.8912V9.60775H36.8431V8.8912H37.5597ZM36.8431 8.8912V9.60775H36.1265V8.8912H36.8431ZM36.8431 9.60775V10.3243H36.1265V9.60775H36.8431ZM35.4099 9.60775V10.3243H34.6933V9.60775H35.4099ZM35.4099 8.8912V9.60775H34.6933V8.8912H35.4099ZM34.6933 8.8912V9.60775H33.9767V8.8912H34.6933ZM34.6933 9.60775V10.3243H33.9767V9.60775H34.6933ZM33.9767 9.60775V10.3243H33.2603V9.60775H33.9767ZM33.9767 10.3243V11.0409H33.2603V10.3243H33.9767ZM33.9767 11.0409V11.7574H33.2603V11.0409H33.9767ZM34.6933 11.0409V11.7574H33.9767V11.0409H34.6933ZM34.6933 10.3243V11.0409H33.9767V10.3243H34.6933ZM35.4099 10.3243V11.0409H34.6933V10.3243H35.4099ZM35.4099 11.0409V11.7574H34.6933V11.0409H35.4099ZM36.1265 11.0409V11.7574H35.4099V11.0409H36.1265ZM36.8431 11.0409V11.7574H36.1265V11.0409H36.8431ZM33.2603 11.0409V11.7574H32.5437V11.0409H33.2603ZM33.2603 11.7574V12.474H32.5437V11.7574H33.2603ZM33.2603 12.474V13.1906H32.5437V12.474H33.2603ZM33.2603 13.1906V13.9071H32.5437V13.1906H33.2603ZM33.2603 13.9071V14.6237H32.5437V13.9071H33.2603ZM33.2603 14.6237V15.3402H32.5437V14.6237H33.2603ZM33.2603 15.3402V16.0568H32.5437V15.3402H33.2603ZM33.2603 16.0568V16.7733H32.5437V16.0568H33.2603ZM33.2603 16.7733V17.4899H32.5437V16.7733H33.2603ZM33.2603 17.4899V18.2065H32.5437V17.4899H33.2603ZM33.9767 17.4899V18.2065H33.2603V17.4899H33.9767ZM33.9767 18.2065V18.923H33.2603V18.2065H33.9767ZM33.2603 18.2065V18.923H32.5437V18.2065H33.2603ZM34.6933 18.2065V18.923H33.9767V18.2065H34.6933ZM35.4099 18.2065V18.923H34.6933V18.2065H35.4099ZM36.1265 18.2065V18.923H35.4099V18.2065H36.1265ZM36.8431 18.2065V18.923H36.1265V18.2065H36.8431ZM36.1265 17.4899V18.2065H35.4099V17.4899H36.1265ZM36.1265 16.7733V17.4899H35.4099V16.7733H36.1265ZM36.1265 16.0568V16.7733H35.4099V16.0568H36.1265ZM36.1265 15.3402V16.0568H35.4099V15.3402H36.1265ZM36.1265 14.6237V15.3402H35.4099V14.6237H36.1265ZM36.1265 13.9071V14.6237H35.4099V13.9071H36.1265ZM36.1265 13.1906V13.9071H35.4099V13.1906H36.1265ZM36.1265 12.474V13.1906H35.4099V12.474H36.1265ZM36.1265 11.7574V12.474H35.4099V11.7574H36.1265ZM35.4099 11.7574V12.474H34.6933V11.7574H35.4099ZM34.6933 11.7574V12.474H33.9767V11.7574H34.6933ZM33.9767 11.7574V12.474H33.2603V11.7574H33.9767ZM33.9767 12.474V13.1906H33.2603V12.474H33.9767ZM33.9767 13.1906V13.9071H33.2603V13.1906H33.9767ZM33.9767 13.9071V14.6237H33.2603V13.9071H33.9767ZM33.9767 14.6237V15.3402H33.2603V14.6237H33.9767ZM33.9767 15.3402V16.0568H33.2603V15.3402H33.9767ZM33.9767 16.0568V16.7733H33.2603V16.0568H33.9767ZM33.9767 16.7733V17.4899H33.2603V16.7733H33.9767ZM34.6933 17.4899V18.2065H33.9767V17.4899H34.6933ZM35.4099 17.4899V18.2065H34.6933V17.4899H35.4099ZM35.4099 16.7733V17.4899H34.6933V16.7733H35.4099ZM35.4099 16.0568V16.7733H34.6933V16.0568H35.4099ZM35.4099 15.3402V16.0568H34.6933V15.3402H35.4099ZM35.4099 14.6237V15.3402H34.6933V14.6237H35.4099ZM34.6933 14.6237V15.3402H33.9767V14.6237H34.6933ZM34.6933 13.9071V14.6237H33.9767V13.9071H34.6933ZM34.6933 13.1906V13.9071H33.9767V13.1906H34.6933ZM34.6933 12.474V13.1906H33.9767V12.474H34.6933ZM35.4099 12.474V13.1906H34.6933V12.474H35.4099ZM35.4099 13.1906V13.9071H34.6933V13.1906H35.4099ZM35.4099 13.9071V14.6237H34.6933V13.9071H35.4099ZM34.6933 16.0568V16.7733H33.9767V16.0568H34.6933ZM34.6933 16.7733V17.4899H33.9767V16.7733H34.6933ZM34.6933 15.3402V16.0568H33.9767V15.3402H34.6933ZM41.1424 16.7733V17.4899H40.4258V16.7733H41.1424ZM41.1424 17.4899V18.2065H40.4258V17.4899H41.1424ZM41.859 17.4899V18.2065H41.1424V17.4899H41.859ZM42.5754 17.4899V18.2065H41.859V17.4899H42.5754ZM43.292 17.4899V18.2065H42.5754V17.4899H43.292ZM44.0086 17.4899V18.2065H43.292V17.4899H44.0086ZM44.0086 16.7733V17.4899H43.292V16.7733H44.0086ZM43.292 16.7733V17.4899H42.5754V16.7733H43.292ZM42.5754 16.7733V17.4899H41.859V16.7733H42.5754ZM41.859 16.7733V17.4899H41.1424V16.7733H41.859ZM44.0086 18.2065V18.923H43.292V18.2065H44.0086ZM43.292 18.2065V18.923H42.5754V18.2065H43.292ZM42.5754 18.2065V18.923H41.859V18.2065H42.5754ZM41.859 18.2065V18.923H41.1424V18.2065H41.859ZM41.1424 18.2065V18.923H40.4258V18.2065H41.1424ZM40.4258 18.2065V18.923H39.7092V18.2065H40.4258ZM40.4258 18.923V19.6396H39.7092V18.923H40.4258ZM41.1424 18.923V19.6396H40.4258V18.923H41.1424ZM41.859 18.923V19.6396H41.1424V18.923H41.859ZM42.5754 18.923V19.6396H41.859V18.923H42.5754ZM42.5754 19.6396V20.3561H41.859V19.6396H42.5754ZM43.292 19.6396V20.3561H42.5754V19.6396H43.292ZM43.292 18.923V19.6396H42.5754V18.923H43.292ZM42.5754 20.3561V21.0727H41.859V20.3561H42.5754ZM41.859 20.3561V21.0727H41.1424V20.3561H41.859ZM41.859 19.6396V20.3561H41.1424V19.6396H41.859ZM41.1424 19.6396V20.3561H40.4258V19.6396H41.1424ZM41.1424 20.3561V21.0727H40.4258V20.3561H41.1424ZM41.1424 21.0727V21.7892H40.4258V21.0727H41.1424ZM40.4258 21.0727V21.7892H39.7092V21.0727H40.4258ZM39.7092 21.0727V21.7892H38.9926V21.0727H39.7092ZM38.9926 21.0727V21.7892H38.276V21.0727H38.9926ZM38.276 21.0727V21.7892H37.5597V21.0727H38.276ZM37.5597 21.0727V21.7892H36.8431V21.0727H37.5597ZM36.8431 21.0727V21.7892H36.1265V21.0727H36.8431ZM36.1265 21.0727V21.7892H35.4099V21.0727H36.1265ZM36.8431 20.3561V21.0727H36.1265V20.3561H36.8431ZM37.5597 20.3561V21.0727H36.8431V20.3561H37.5597ZM38.276 20.3561V21.0727H37.5597V20.3561H38.276ZM38.9926 20.3561V21.0727H38.276V20.3561H38.9926ZM39.7092 20.3561V21.0727H38.9926V20.3561H39.7092ZM40.4258 20.3561V21.0727H39.7092V20.3561H40.4258ZM40.4258 19.6396V20.3561H39.7092V19.6396H40.4258ZM39.7092 19.6396V20.3561H38.9926V19.6396H39.7092ZM38.9926 19.6396V20.3561H38.276V19.6396H38.9926ZM38.276 19.6396V20.3561H37.5597V19.6396H38.276ZM37.5597 19.6396V20.3561H36.8431V19.6396H37.5597ZM36.8431 19.6396V20.3561H36.1265V19.6396H36.8431ZM36.1265 20.3561V21.0727H35.4099V20.3561H36.1265ZM35.4099 20.3561V21.0727H34.6933V20.3561H35.4099ZM34.6933 20.3561V21.0727H33.9767V20.3561H34.6933ZM34.6933 19.6396V20.3561H33.9767V19.6396H34.6933ZM33.9767 19.6396V20.3561H33.2603V19.6396H33.9767ZM33.9767 18.923V19.6396H33.2603V18.923H33.9767ZM34.6933 18.923V19.6396H33.9767V18.923H34.6933ZM35.4099 18.923V19.6396H34.6933V18.923H35.4099ZM36.1265 18.923V19.6396H35.4099V18.923H36.1265ZM36.8431 18.923V19.6396H36.1265V18.923H36.8431ZM37.5597 18.923V19.6396H36.8431V18.923H37.5597ZM38.276 18.923V19.6396H37.5597V18.923H38.276ZM38.9926 18.923V19.6396H38.276V18.923H38.9926ZM39.7092 18.923V19.6396H38.9926V18.923H39.7092ZM36.1265 19.6396V20.3561H35.4099V19.6396H36.1265ZM35.4099 19.6396V20.3561H34.6933V19.6396H35.4099ZM41.1424 13.1906V13.9071H40.4258V13.1906H41.1424ZM41.1424 13.9071V14.6237H40.4258V13.9071H41.1424ZM41.859 13.9071V14.6237H41.1424V13.9071H41.859ZM42.5754 13.9071V14.6237H41.859V13.9071H42.5754ZM43.292 13.9071V14.6237H42.5754V13.9071H43.292ZM44.0086 13.9071V14.6237H43.292V13.9071H44.0086ZM44.0086 13.1906V13.9071H43.292V13.1906H44.0086ZM43.292 13.1906V13.9071H42.5754V13.1906H43.292ZM42.5754 13.1906V13.9071H41.859V13.1906H42.5754ZM41.859 13.1906V13.9071H41.1424V13.1906H41.859ZM41.859 14.6237V15.3402H41.1424V14.6237H41.859ZM42.5754 14.6237V15.3402H41.859V14.6237H42.5754ZM42.5754 15.3402V16.0568H41.859V15.3402H42.5754ZM43.292 15.3402V16.0568H42.5754V15.3402H43.292ZM43.292 14.6237V15.3402H42.5754V14.6237H43.292ZM44.0086 14.6237V15.3402H43.292V14.6237H44.0086ZM44.0086 15.3402V16.0568H43.292V15.3402H44.0086ZM44.0086 16.0568V16.7733H43.292V16.0568H44.0086ZM43.292 16.0568V16.7733H42.5754V16.0568H43.292ZM42.5754 16.0568V16.7733H41.859V16.0568H42.5754ZM41.859 16.0568V16.7733H41.1424V16.0568H41.859ZM41.859 15.3402V16.0568H41.1424V15.3402H41.859ZM41.1424 15.3402V16.0568H40.4258V15.3402H41.1424ZM41.1424 14.6237V15.3402H40.4258V14.6237H41.1424ZM41.1424 16.0568V16.7733H40.4258V16.0568H41.1424Z" fill="#FCFFFC"/>
<path d="M31.3495 39.4942V40.1511H30.6926V39.4942H31.3495ZM31.3495 38.8373V39.4942H30.6926V38.8373H31.3495ZM31.3495 38.1805V38.8373H30.6926V38.1805H31.3495ZM31.3495 37.5236V38.1805H30.6926V37.5236H31.3495ZM31.3495 36.8667V37.5236H30.6926V36.8667H31.3495ZM31.3495 36.2099V36.8667H30.6926V36.2099H31.3495ZM31.3495 35.5533V36.2099H30.6926V35.5533H31.3495ZM31.3495 34.8964V35.5533H30.6926V34.8964H31.3495ZM31.3495 34.2395V34.8964H30.6926V34.2395H31.3495ZM31.3495 33.5827V34.2395H30.6926V33.5827H31.3495ZM31.3495 32.9258V33.5827H30.6926V32.9258H31.3495ZM31.3495 32.2689V32.9258H30.6926V32.2689H31.3495ZM31.3495 31.6121V32.2689H30.6926V31.6121H31.3495ZM31.3495 30.9552V31.6121H30.6926V30.9552H31.3495ZM31.3495 30.2984V30.9552H30.6926V30.2984H31.3495ZM32.0064 30.2984V30.9552H31.3495V30.2984H32.0064ZM32.0064 30.9552V31.6121H31.3495V30.9552H32.0064ZM32.0064 31.6121V32.2689H31.3495V31.6121H32.0064ZM32.0064 32.2689V32.9258H31.3495V32.2689H32.0064ZM32.0064 32.9258V33.5827H31.3495V32.9258H32.0064ZM32.0064 33.5827V34.2395H31.3495V33.5827H32.0064ZM32.0064 34.2395V34.8964H31.3495V34.2395H32.0064ZM32.6632 34.8964V35.5533H32.0064V34.8964H32.6632ZM32.6632 35.5533V36.2099H32.0064V35.5533H32.6632ZM32.6632 36.2099V36.8667H32.0064V36.2099H32.6632ZM32.6632 36.8667V37.5236H32.0064V36.8667H32.6632ZM32.6632 37.5236V38.1805H32.0064V37.5236H32.6632ZM32.6632 38.1805V38.8373H32.0064V38.1805H32.6632ZM32.6632 38.8373V39.4942H32.0064V38.8373H32.6632ZM32.6632 39.4942V40.1511H32.0064V39.4942H32.6632ZM33.3201 39.4942V40.1511H32.6632V39.4942H33.3201ZM33.9767 39.4942V40.1511H33.3201V39.4942H33.9767ZM33.9767 38.8373V39.4942H33.3201V38.8373H33.9767ZM33.9767 38.1805V38.8373H33.3201V38.1805H33.9767ZM33.9767 37.5236V38.1805H33.3201V37.5236H33.9767ZM33.9767 36.8667V37.5236H33.3201V36.8667H33.9767ZM33.9767 36.2099V36.8667H33.3201V36.2099H33.9767ZM33.9767 35.5533V36.2099H33.3201V35.5533H33.9767ZM33.9767 34.8964V35.5533H33.3201V34.8964H33.9767ZM33.3201 34.8964V35.5533H32.6632V34.8964H33.3201ZM33.3201 34.2395V34.8964H32.6632V34.2395H33.3201ZM33.3201 35.5533V36.2099H32.6632V35.5533H33.3201ZM33.3201 36.2099V36.8667H32.6632V36.2099H33.3201ZM33.3201 36.8667V37.5236H32.6632V36.8667H33.3201ZM33.3201 37.5236V38.1805H32.6632V37.5236H33.3201ZM33.3201 38.1805V38.8373H32.6632V38.1805H33.3201ZM33.3201 38.8373V39.4942H32.6632V38.8373H33.3201ZM32.0064 39.4942V40.1511H31.3495V39.4942H32.0064ZM32.0064 38.8373V39.4942H31.3495V38.8373H32.0064ZM32.0064 38.1805V38.8373H31.3495V38.1805H32.0064ZM32.0064 37.5236V38.1805H31.3495V37.5236H32.0064ZM32.0064 36.8667V37.5236H31.3495V36.8667H32.0064ZM32.0064 36.2099V36.8667H31.3495V36.2099H32.0064ZM32.0064 35.5533V36.2099H31.3495V35.5533H32.0064ZM32.0064 34.8964V35.5533H31.3495V34.8964H32.0064ZM31.3495 27.6709V28.3278H30.6926V27.6709H31.3495ZM31.3495 28.3278V28.9846H30.6926V28.3278H31.3495ZM31.3495 28.9846V29.6415H30.6926V28.9846H31.3495ZM31.3495 29.6415V30.2984H30.6926V29.6415H31.3495ZM33.3201 28.3278V28.9846H32.6632V28.3278H33.3201ZM33.3201 28.9846V29.6415H32.6632V28.9846H33.3201ZM33.3201 29.6415V30.2984H32.6632V29.6415H33.3201ZM33.3201 30.2984V30.9552H32.6632V30.2984H33.3201ZM33.3201 30.9552V31.6121H32.6632V30.9552H33.3201ZM33.3201 31.6121V32.2689H32.6632V31.6121H33.3201ZM33.3201 32.2689V32.9258H32.6632V32.2689H33.3201ZM33.9767 32.9258V33.5827H33.3201V32.9258H33.9767ZM33.9767 33.5827V34.2395H33.3201V33.5827H33.9767ZM33.9767 34.2395V34.8964H33.3201V34.2395H33.9767ZM33.9767 32.2689V32.9258H33.3201V32.2689H33.9767ZM33.9767 31.6121V32.2689H33.3201V31.6121H33.9767ZM33.9767 30.9552V31.6121H33.3201V30.9552H33.9767ZM33.9767 30.2984V30.9552H33.3201V30.2984H33.9767ZM33.9767 29.6415V30.2984H33.3201V29.6415H33.9767ZM33.9767 28.9846V29.6415H33.3201V28.9846H33.9767ZM33.9767 28.3278V28.9846H33.3201V28.3278H33.9767ZM33.9767 27.6709V28.3278H33.3201V27.6709H33.9767ZM33.3201 27.6709V28.3278H32.6632V27.6709H33.3201ZM32.6632 27.6709V28.3278H32.0064V27.6709H32.6632ZM32.6632 28.3278V28.9846H32.0064V28.3278H32.6632ZM32.0064 28.9846V29.6415H31.3495V28.9846H32.0064ZM32.0064 29.6415V30.2984H31.3495V29.6415H32.0064ZM32.0064 28.3278V28.9846H31.3495V28.3278H32.0064ZM32.0064 27.6709V28.3278H31.3495V27.6709H32.0064ZM32.6632 28.9846V29.6415H32.0064V28.9846H32.6632ZM32.6632 29.6415V30.2984H32.0064V29.6415H32.6632ZM32.6632 30.2984V30.9552H32.0064V30.2984H32.6632ZM32.6632 30.9552V31.6121H32.0064V30.9552H32.6632ZM32.6632 31.6121V32.2689H32.0064V31.6121H32.6632ZM32.6632 32.2689V32.9258H32.0064V32.2689H32.6632ZM32.6632 32.9258V33.5827H32.0064V32.9258H32.6632ZM32.6632 33.5827V34.2395H32.0064V33.5827H32.6632ZM32.6632 34.2395V34.8964H32.0064V34.2395H32.6632ZM33.3201 33.5827V34.2395H32.6632V33.5827H33.3201ZM33.3201 32.9258V33.5827H32.6632V32.9258H33.3201ZM37.261 39.4942V40.1511H36.6042V39.4942H37.261ZM37.9179 39.4942V40.1511H37.261V39.4942H37.9179ZM38.5747 39.4942V40.1511H37.9179V39.4942H38.5747ZM39.2316 39.4942V40.1511H38.5747V39.4942H39.2316ZM39.8885 38.8373V39.4942H39.2316V38.8373H39.8885ZM39.8885 38.1805V38.8373H39.2316V38.1805H39.8885ZM39.8885 39.4942V40.1511H39.2316V39.4942H39.8885ZM39.2316 38.8373V39.4942H38.5747V38.8373H39.2316ZM38.5747 38.8373V39.4942H37.9179V38.8373H38.5747ZM37.9179 38.8373V39.4942H37.261V38.8373H37.9179ZM37.261 38.8373V39.4942H36.6042V38.8373H37.261ZM37.261 38.1805V38.8373H36.6042V38.1805H37.261ZM37.261 37.5236V38.1805H36.6042V37.5236H37.261ZM37.9179 37.5236V38.1805H37.261V37.5236H37.9179ZM38.5747 37.5236V38.1805H37.9179V37.5236H38.5747ZM39.2316 37.5236V38.1805H38.5747V37.5236H39.2316ZM39.8885 37.5236V38.1805H39.2316V37.5236H39.8885ZM39.2316 38.1805V38.8373H38.5747V38.1805H39.2316ZM38.5747 38.1805V38.8373H37.9179V38.1805H38.5747ZM37.9179 38.1805V38.8373H37.261V38.1805H37.9179ZM39.2316 30.2984V30.9552H38.5747V30.2984H39.2316ZM37.9179 30.2984V30.9552H37.261V30.2984H37.9179ZM37.9179 30.9552V31.6121H37.261V30.9552H37.9179ZM37.9179 31.6121V32.2689H37.261V31.6121H37.9179ZM37.261 32.2689V32.9258H36.6042V32.2689H37.261ZM37.261 32.9258V33.5827H36.6042V32.9258H37.261ZM37.261 33.5827V34.2395H36.6042V33.5827H37.261ZM37.261 34.2395V34.8964H36.6042V34.2395H37.261ZM37.261 34.8964V35.5533H36.6042V34.8964H37.261ZM37.261 35.5533V36.2099H36.6042V35.5533H37.261ZM37.261 36.2099V36.8667H36.6042V36.2099H37.261ZM37.261 36.8667V37.5236H36.6042V36.8667H37.261ZM37.9179 36.8667V37.5236H37.261V36.8667H37.9179ZM38.5747 36.8667V37.5236H37.9179V36.8667H38.5747ZM39.2316 36.8667V37.5236H38.5747V36.8667H39.2316ZM39.8885 36.8667V37.5236H39.2316V36.8667H39.8885ZM39.8885 36.2099V36.8667H39.2316V36.2099H39.8885ZM39.8885 34.8964V35.5533H39.2316V34.8964H39.8885ZM39.8885 34.2395V34.8964H39.2316V34.2395H39.8885ZM39.8885 33.5827V34.2395H39.2316V33.5827H39.8885ZM39.8885 32.9258V33.5827H39.2316V32.9258H39.8885ZM39.8885 32.2689V32.9258H39.2316V32.2689H39.8885ZM39.8885 31.6121V32.2689H39.2316V31.6121H39.8885ZM39.2316 33.5827V34.2395H38.5747V33.5827H39.2316ZM39.2316 34.8964V35.5533H38.5747V34.8964H39.2316ZM39.2316 35.5533V36.2099H38.5747V35.5533H39.2316ZM39.2316 36.2099V36.8667H38.5747V36.2099H39.2316ZM39.8885 35.5533V36.2099H39.2316V35.5533H39.8885ZM39.2316 32.2689V32.9258H38.5747V32.2689H39.2316ZM38.5747 32.2689V32.9258H37.9179V32.2689H38.5747ZM37.9179 32.2689V32.9258H37.261V32.2689H37.9179ZM37.9179 32.9258V33.5827H37.261V32.9258H37.9179ZM37.9179 33.5827V34.2395H37.261V33.5827H37.9179ZM37.9179 34.2395V34.8964H37.261V34.2395H37.9179ZM37.9179 34.8964V35.5533H37.261V34.8964H37.9179ZM37.9179 35.5533V36.2099H37.261V35.5533H37.9179ZM37.9179 36.2099V36.8667H37.261V36.2099H37.9179ZM38.5747 36.2099V36.8667H37.9179V36.2099H38.5747ZM38.5747 35.5533V36.2099H37.9179V35.5533H38.5747ZM38.5747 34.8964V35.5533H37.9179V34.8964H38.5747ZM38.5747 34.2395V34.8964H37.9179V34.2395H38.5747ZM38.5747 33.5827V34.2395H37.9179V33.5827H38.5747ZM38.5747 32.9258V33.5827H37.9179V32.9258H38.5747ZM39.2316 32.9258V33.5827H38.5747V32.9258H39.2316ZM39.2316 34.2395V34.8964H38.5747V34.2395H39.2316ZM39.2316 31.6121V32.2689H38.5747V31.6121H39.2316ZM39.2316 30.9552V31.6121H38.5747V30.9552H39.2316ZM38.5747 30.9552V31.6121H37.9179V30.9552H38.5747ZM38.5747 31.6121V32.2689H37.9179V31.6121H38.5747ZM37.261 31.6121V32.2689H36.6042V31.6121H37.261ZM37.261 30.9552V31.6121H36.6042V30.9552H37.261ZM37.261 30.2984V30.9552H36.6042V30.2984H37.261ZM38.5747 30.2984V30.9552H37.9179V30.2984H38.5747ZM37.261 27.6709V28.3278H36.6042V27.6709H37.261ZM37.261 28.3278V28.9846H36.6042V28.3278H37.261ZM37.9179 28.3278V28.9846H37.261V28.3278H37.9179ZM38.5747 28.3278V28.9846H37.9179V28.3278H38.5747ZM38.5747 28.9846V29.6415H37.9179V28.9846H38.5747ZM39.2316 28.9846V29.6415H38.5747V28.9846H39.2316ZM39.2316 29.6415V30.2984H38.5747V29.6415H39.2316ZM38.5747 29.6415V30.2984H37.9179V29.6415H38.5747ZM37.9179 29.6415V30.2984H37.261V29.6415H37.9179ZM37.9179 28.9846V29.6415H37.261V28.9846H37.9179ZM37.261 28.9846V29.6415H36.6042V28.9846H37.261ZM36.6042 28.9846V29.6415H35.9473V28.9846H36.6042ZM36.6042 29.6415V30.2984H35.9473V29.6415H36.6042ZM37.261 29.6415V30.2984H36.6042V29.6415H37.261ZM36.6042 30.2984V30.9552H35.9473V30.2984H36.6042ZM36.6042 27.6709V28.3278H35.9473V27.6709H36.6042ZM36.6042 28.3278V28.9846H35.9473V28.3278H36.6042ZM35.9473 27.6709V28.3278H35.2904V27.6709H35.9473ZM35.9473 28.3278V28.9846H35.2904V28.3278H35.9473ZM35.9473 28.9846V29.6415H35.2904V28.9846H35.9473ZM35.2904 28.3278V28.9846H34.6336V28.3278H35.2904ZM34.6336 28.9846V29.6415H33.9767V28.9846H34.6336ZM34.6336 29.6415V30.2984H33.9767V29.6415H34.6336ZM35.2904 29.6415V30.2984H34.6336V29.6415H35.2904ZM35.2904 28.9846V29.6415H34.6336V28.9846H35.2904ZM34.6336 30.2984V30.9552H33.9767V30.2984H34.6336ZM43.1725 39.4942V40.1511H42.5159V39.4942H43.1725ZM43.8294 39.4942V40.1511H43.1725V39.4942H43.8294ZM44.4863 39.4942V40.1511H43.8294V39.4942H44.4863ZM45.1431 39.4942V40.1511H44.4863V39.4942H45.1431ZM45.8 38.8373V39.4942H45.1431V38.8373H45.8ZM45.8 38.1805V38.8373H45.1431V38.1805H45.8ZM45.8 39.4942V40.1511H45.1431V39.4942H45.8ZM45.1431 38.8373V39.4942H44.4863V38.8373H45.1431ZM44.4863 38.8373V39.4942H43.8294V38.8373H44.4863ZM43.8294 38.8373V39.4942H43.1725V38.8373H43.8294ZM43.1725 38.8373V39.4942H42.5159V38.8373H43.1725ZM43.1725 38.1805V38.8373H42.5159V38.1805H43.1725ZM43.1725 37.5236V38.1805H42.5159V37.5236H43.1725ZM43.8294 37.5236V38.1805H43.1725V37.5236H43.8294ZM44.4863 37.5236V38.1805H43.8294V37.5236H44.4863ZM45.1431 37.5236V38.1805H44.4863V37.5236H45.1431ZM45.8 37.5236V38.1805H45.1431V37.5236H45.8ZM45.1431 38.1805V38.8373H44.4863V38.1805H45.1431ZM44.4863 38.1805V38.8373H43.8294V38.1805H44.4863ZM43.8294 38.1805V38.8373H43.1725V38.1805H43.8294ZM45.8 30.2984V30.9552H45.1431V30.2984H45.8ZM45.1431 30.2984V30.9552H44.4863V30.2984H45.1431ZM43.8294 30.2984V30.9552H43.1725V30.2984H43.8294ZM43.8294 30.9552V31.6121H43.1725V30.9552H43.8294ZM43.8294 31.6121V32.2689H43.1725V31.6121H43.8294ZM43.1725 32.2689V32.9258H42.5159V32.2689H43.1725ZM43.1725 32.9258V33.5827H42.5159V32.9258H43.1725ZM43.1725 33.5827V34.2395H42.5159V33.5827H43.1725ZM43.1725 34.2395V34.8964H42.5159V34.2395H43.1725ZM43.1725 34.8964V35.5533H42.5159V34.8964H43.1725ZM43.1725 35.5533V36.2099H42.5159V35.5533H43.1725ZM43.1725 36.2099V36.8667H42.5159V36.2099H43.1725ZM43.1725 36.8667V37.5236H42.5159V36.8667H43.1725ZM43.8294 36.8667V37.5236H43.1725V36.8667H43.8294ZM44.4863 36.8667V37.5236H43.8294V36.8667H44.4863ZM45.1431 36.8667V37.5236H44.4863V36.8667H45.1431ZM45.8 36.8667V37.5236H45.1431V36.8667H45.8ZM45.8 36.2099V36.8667H45.1431V36.2099H45.8ZM45.8 34.8964V35.5533H45.1431V34.8964H45.8ZM45.8 34.2395V34.8964H45.1431V34.2395H45.8ZM45.8 33.5827V34.2395H45.1431V33.5827H45.8ZM45.8 32.9258V33.5827H45.1431V32.9258H45.8ZM45.8 32.2689V32.9258H45.1431V32.2689H45.8ZM45.8 31.6121V32.2689H45.1431V31.6121H45.8ZM45.8 30.9552V31.6121H45.1431V30.9552H45.8ZM45.1431 33.5827V34.2395H44.4863V33.5827H45.1431ZM45.1431 34.8964V35.5533H44.4863V34.8964H45.1431ZM45.1431 35.5533V36.2099H44.4863V35.5533H45.1431ZM45.1431 36.2099V36.8667H44.4863V36.2099H45.1431ZM45.8 35.5533V36.2099H45.1431V35.5533H45.8ZM45.1431 32.2689V32.9258H44.4863V32.2689H45.1431ZM44.4863 32.2689V32.9258H43.8294V32.2689H44.4863ZM43.8294 32.2689V32.9258H43.1725V32.2689H43.8294ZM43.8294 32.9258V33.5827H43.1725V32.9258H43.8294ZM43.8294 33.5827V34.2395H43.1725V33.5827H43.8294ZM43.8294 34.2395V34.8964H43.1725V34.2395H43.8294ZM43.8294 34.8964V35.5533H43.1725V34.8964H43.8294ZM43.8294 35.5533V36.2099H43.1725V35.5533H43.8294ZM43.8294 36.2099V36.8667H43.1725V36.2099H43.8294ZM44.4863 36.2099V36.8667H43.8294V36.2099H44.4863ZM44.4863 35.5533V36.2099H43.8294V35.5533H44.4863ZM44.4863 34.8964V35.5533H43.8294V34.8964H44.4863ZM44.4863 34.2395V34.8964H43.8294V34.2395H44.4863ZM44.4863 33.5827V34.2395H43.8294V33.5827H44.4863ZM44.4863 32.9258V33.5827H43.8294V32.9258H44.4863ZM45.1431 32.9258V33.5827H44.4863V32.9258H45.1431ZM45.1431 34.2395V34.8964H44.4863V34.2395H45.1431ZM45.1431 31.6121V32.2689H44.4863V31.6121H45.1431ZM45.1431 30.9552V31.6121H44.4863V30.9552H45.1431ZM44.4863 30.9552V31.6121H43.8294V30.9552H44.4863ZM44.4863 31.6121V32.2689H43.8294V31.6121H44.4863ZM43.1725 31.6121V32.2689H42.5159V31.6121H43.1725ZM43.1725 30.9552V31.6121H42.5159V30.9552H43.1725ZM43.1725 30.2984V30.9552H42.5159V30.2984H43.1725ZM44.4863 30.2984V30.9552H43.8294V30.2984H44.4863ZM43.1725 27.6709V28.3278H42.5159V27.6709H43.1725ZM43.1725 28.3278V28.9846H42.5159V28.3278H43.1725ZM43.8294 28.3278V28.9846H43.1725V28.3278H43.8294ZM44.4863 28.3278V28.9846H43.8294V28.3278H44.4863ZM44.4863 28.9846V29.6415H43.8294V28.9846H44.4863ZM45.1431 28.9846V29.6415H44.4863V28.9846H45.1431ZM45.1431 29.6415V30.2984H44.4863V29.6415H45.1431ZM44.4863 29.6415V30.2984H43.8294V29.6415H44.4863ZM43.8294 29.6415V30.2984H43.1725V29.6415H43.8294ZM43.8294 28.9846V29.6415H43.1725V28.9846H43.8294ZM43.1725 28.9846V29.6415H42.5159V28.9846H43.1725ZM42.5159 28.9846V29.6415H41.8591V28.9846H42.5159ZM42.5159 29.6415V30.2984H41.8591V29.6415H42.5159ZM43.1725 29.6415V30.2984H42.5159V29.6415H43.1725ZM42.5159 30.2984V30.9552H41.8591V30.2984H42.5159ZM41.8591 29.6415V30.2984H41.2022V29.6415H41.8591ZM41.8591 28.9846V29.6415H41.2022V28.9846H41.8591ZM41.8591 28.3278V28.9846H41.2022V28.3278H41.8591ZM41.8591 27.6709V28.3278H41.2022V27.6709H41.8591ZM42.5159 27.6709V28.3278H41.8591V27.6709H42.5159ZM42.5159 28.3278V28.9846H41.8591V28.3278H42.5159ZM41.2022 27.6709V28.3278H40.5453V27.6709H41.2022ZM41.2022 28.3278V28.9846H40.5453V28.3278H41.2022ZM40.5453 28.3278V28.9846H39.8885V28.3278H40.5453ZM40.5453 28.9846V29.6415H39.8885V28.9846H40.5453ZM39.8885 28.9846V29.6415H39.2316V28.9846H39.8885ZM39.8885 29.6415V30.2984H39.2316V29.6415H39.8885ZM40.5453 29.6415V30.2984H39.8885V29.6415H40.5453ZM41.2022 29.6415V30.2984H40.5453V29.6415H41.2022ZM41.2022 28.9846V29.6415H40.5453V28.9846H41.2022ZM39.8885 30.2984V30.9552H39.2316V30.2984H39.8885ZM40.5453 30.2984V30.9552H39.8885V30.2984H40.5453ZM39.8885 30.9552V31.6121H39.2316V30.9552H39.8885ZM35.2904 27.6709V28.3278H34.6336V27.6709H35.2904ZM34.6336 28.3278V28.9846H33.9767V28.3278H34.6336ZM40.5453 27.6709V28.3278H39.8885V27.6709H40.5453ZM39.8885 28.3278V28.9846H39.2316V28.3278H39.8885ZM35.9473 29.6415V30.2984H35.2904V29.6415H35.9473ZM37.9179 27.6709V28.3278H37.261V27.6709H37.9179Z" fill="#FCFFFC"/>
<path d="M50.9354 23.73V24.3868H50.2786V23.73H50.9354ZM50.9354 24.3868V25.0437H50.2786V24.3868H50.9354ZM50.9354 25.0437V25.7006H50.2786V25.0437H50.9354ZM52.906 23.73V24.3868H52.2492V23.73H52.906ZM52.906 24.3868V25.0437H52.2492V24.3868H52.906ZM52.906 25.0437V25.7006H52.2492V25.0437H52.906ZM53.5626 25.0437V25.7006H52.906V25.0437H53.5626ZM53.5626 24.3868V25.0437H52.906V24.3868H53.5626ZM53.5626 23.73V24.3868H52.906V23.73H53.5626ZM52.2492 23.73V24.3868H51.5923V23.73H52.2492ZM51.5923 23.73V24.3868H50.9354V23.73H51.5923ZM51.5923 24.3868V25.0437H50.9354V24.3868H51.5923ZM52.2492 24.3868V25.0437H51.5923V24.3868H52.2492ZM52.2492 25.0437V25.7006H51.5923V25.0437H52.2492ZM51.5923 25.0437V25.7006H50.9354V25.0437H51.5923ZM50.9354 25.7006V26.3574H50.2786V25.7006H50.9354ZM51.5923 25.7006V26.3574H50.9354V25.7006H51.5923ZM52.2492 25.7006V26.3574H51.5923V25.7006H52.2492ZM52.906 25.7006V26.3574H52.2492V25.7006H52.906ZM53.5626 25.7006V26.3574H52.906V25.7006H53.5626ZM50.9354 39.4942V40.1511H50.2786V39.4942H50.9354ZM50.9354 38.8373V39.4942H50.2786V38.8373H50.9354ZM50.9354 38.1805V38.8373H50.2786V38.1805H50.9354ZM50.9354 37.5236V38.1805H50.2786V37.5236H50.9354ZM50.9354 36.8667V37.5236H50.2786V36.8667H50.9354ZM50.9354 36.2099V36.8667H50.2786V36.2099H50.9354ZM50.9354 35.5533V36.2099H50.2786V35.5533H50.9354ZM50.9354 34.8964V35.5533H50.2786V34.8964H50.9354ZM50.9354 34.2395V34.8964H50.2786V34.2395H50.9354ZM50.9354 33.5827V34.2395H50.2786V33.5827H50.9354ZM50.9354 32.9258V33.5827H50.2786V32.9258H50.9354ZM50.9354 32.2689V32.9258H50.2786V32.2689H50.9354ZM50.9354 31.6121V32.2689H50.2786V31.6121H50.9354ZM50.9354 30.9552V31.6121H50.2786V30.9552H50.9354ZM50.9354 30.2984V30.9552H50.2786V30.2984H50.9354ZM51.5923 30.2984V30.9552H50.9354V30.2984H51.5923ZM51.5923 30.9552V31.6121H50.9354V30.9552H51.5923ZM51.5923 31.6121V32.2689H50.9354V31.6121H51.5923ZM51.5923 32.2689V32.9258H50.9354V32.2689H51.5923ZM51.5923 32.9258V33.5827H50.9354V32.9258H51.5923ZM51.5923 33.5827V34.2395H50.9354V33.5827H51.5923ZM51.5923 34.2395V34.8964H50.9354V34.2395H51.5923ZM52.2492 34.8964V35.5533H51.5923V34.8964H52.2492ZM52.2492 35.5533V36.2099H51.5923V35.5533H52.2492ZM52.2492 36.2099V36.8667H51.5923V36.2099H52.2492ZM52.2492 36.8667V37.5236H51.5923V36.8667H52.2492ZM52.2492 37.5236V38.1805H51.5923V37.5236H52.2492ZM52.2492 38.1805V38.8373H51.5923V38.1805H52.2492ZM52.2492 38.8373V39.4942H51.5923V38.8373H52.2492ZM52.2492 39.4942V40.1511H51.5923V39.4942H52.2492ZM52.906 39.4942V40.1511H52.2492V39.4942H52.906ZM53.5626 39.4942V40.1511H52.906V39.4942H53.5626ZM53.5626 38.8373V39.4942H52.906V38.8373H53.5626ZM53.5626 38.1805V38.8373H52.906V38.1805H53.5626ZM53.5626 37.5236V38.1805H52.906V37.5236H53.5626ZM53.5626 36.8667V37.5236H52.906V36.8667H53.5626ZM53.5626 36.2099V36.8667H52.906V36.2099H53.5626ZM53.5626 35.5533V36.2099H52.906V35.5533H53.5626ZM53.5626 34.8964V35.5533H52.906V34.8964H53.5626ZM52.906 34.8964V35.5533H52.2492V34.8964H52.906ZM52.906 34.2395V34.8964H52.2492V34.2395H52.906ZM52.906 35.5533V36.2099H52.2492V35.5533H52.906ZM52.906 36.2099V36.8667H52.2492V36.2099H52.906ZM52.906 36.8667V37.5236H52.2492V36.8667H52.906ZM52.906 37.5236V38.1805H52.2492V37.5236H52.906ZM52.906 38.1805V38.8373H52.2492V38.1805H52.906ZM52.906 38.8373V39.4942H52.2492V38.8373H52.906ZM51.5923 39.4942V40.1511H50.9354V39.4942H51.5923ZM51.5923 38.8373V39.4942H50.9354V38.8373H51.5923ZM51.5923 38.1805V38.8373H50.9354V38.1805H51.5923ZM51.5923 37.5236V38.1805H50.9354V37.5236H51.5923ZM51.5923 36.8667V37.5236H50.9354V36.8667H51.5923ZM51.5923 36.2099V36.8667H50.9354V36.2099H51.5923ZM51.5923 35.5533V36.2099H50.9354V35.5533H51.5923ZM51.5923 34.8964V35.5533H50.9354V34.8964H51.5923ZM50.9354 28.9846V29.6415H50.2786V28.9846H50.9354ZM50.9354 29.6415V30.2984H50.2786V29.6415H50.9354ZM52.906 28.9846V29.6415H52.2492V28.9846H52.906ZM52.906 29.6415V30.2984H52.2492V29.6415H52.906ZM52.906 30.2984V30.9552H52.2492V30.2984H52.906ZM52.906 30.9552V31.6121H52.2492V30.9552H52.906ZM52.906 31.6121V32.2689H52.2492V31.6121H52.906ZM52.906 32.2689V32.9258H52.2492V32.2689H52.906ZM53.5626 32.9258V33.5827H52.906V32.9258H53.5626ZM53.5626 33.5827V34.2395H52.906V33.5827H53.5626ZM53.5626 34.2395V34.8964H52.906V34.2395H53.5626ZM53.5626 32.2689V32.9258H52.906V32.2689H53.5626ZM53.5626 31.6121V32.2689H52.906V31.6121H53.5626ZM53.5626 30.9552V31.6121H52.906V30.9552H53.5626ZM53.5626 30.2984V30.9552H52.906V30.2984H53.5626ZM53.5626 29.6415V30.2984H52.906V29.6415H53.5626ZM53.5626 28.9846V29.6415H52.906V28.9846H53.5626ZM51.5923 28.9846V29.6415H50.9354V28.9846H51.5923ZM51.5923 29.6415V30.2984H50.9354V29.6415H51.5923ZM52.2492 28.9846V29.6415H51.5923V28.9846H52.2492ZM52.2492 29.6415V30.2984H51.5923V29.6415H52.2492ZM52.2492 30.2984V30.9552H51.5923V30.2984H52.2492ZM52.2492 30.9552V31.6121H51.5923V30.9552H52.2492ZM52.2492 31.6121V32.2689H51.5923V31.6121H52.2492ZM52.2492 32.2689V32.9258H51.5923V32.2689H52.2492ZM52.2492 32.9258V33.5827H51.5923V32.9258H52.2492ZM52.2492 33.5827V34.2395H51.5923V33.5827H52.2492ZM52.2492 34.2395V34.8964H51.5923V34.2395H52.2492ZM52.906 33.5827V34.2395H52.2492V33.5827H52.906ZM52.906 32.9258V33.5827H52.2492V32.9258H52.906ZM52.906 28.3278V28.9846H52.2492V28.3278H52.906ZM53.5626 28.3278V28.9846H52.906V28.3278H53.5626ZM52.2492 28.3278V28.9846H51.5923V28.3278H52.2492ZM51.5923 28.3278V28.9846H50.9354V28.3278H51.5923ZM50.9354 28.3278V28.9846H50.2786V28.3278H50.9354Z" fill="#FCFFFC"/>
<path d="M26.6441 27.253V26.5364H27.3607V27.253H26.6441ZM26.6441 27.9696V27.253H27.3607V27.9696H26.6441ZM26.6441 28.6862V27.9696H27.3607V28.6862H26.6441ZM26.6441 29.4028V28.6862H27.3607V29.4028H26.6441ZM26.6441 30.1191V29.4028H27.3607V30.1191H26.6441ZM26.6441 30.8357V30.1191H27.3607V30.8357H26.6441ZM26.6441 31.5523V30.8357H27.3607V31.5523H26.6441ZM26.6441 32.2689V31.5523H27.3607V32.2689H26.6441ZM26.6441 32.9855V32.2689H27.3607V32.9855H26.6441ZM26.6441 33.7021V32.9855H27.3607V33.7021H26.6441ZM26.6441 34.4185V33.7021H27.3607V34.4185H26.6441ZM26.6441 35.1351V34.4185H27.3607V35.1351H26.6441ZM26.6441 35.8517V35.1351H27.3607V35.8517H26.6441ZM26.6441 36.5683V35.8517H27.3607V36.5683H26.6441ZM26.6441 37.2849V36.5683H27.3607V37.2849H26.6441ZM25.9275 37.2849V36.5683H26.6441V37.2849H25.9275ZM25.9275 36.5683V35.8517H26.6441V36.5683H25.9275ZM25.9275 35.8517V35.1351H26.6441V35.8517H25.9275ZM25.9275 35.1351V34.4185H26.6441V35.1351H25.9275ZM25.9275 34.4185V33.7021H26.6441V34.4185H25.9275ZM25.9275 33.7021V32.9855H26.6441V33.7021H25.9275ZM25.9275 32.9855V32.2689H26.6441V32.9855H25.9275ZM25.2111 32.2689V31.5523H25.9275V32.2689H25.2111ZM25.2111 31.5523V30.8357H25.9275V31.5523H25.2111ZM25.2111 30.8357V30.1191H25.9275V30.8357H25.2111ZM25.2111 30.1191V29.4028H25.9275V30.1191H25.2111ZM25.2111 29.4028V28.6862H25.9275V29.4028H25.2111ZM25.2111 28.6862V27.9696H25.9275V28.6862H25.2111ZM25.2111 27.9696V27.253H25.9275V27.9696H25.2111ZM25.2111 27.253V26.5364H25.9275V27.253H25.2111ZM24.4945 27.253V26.5364H25.2111V27.253H24.4945ZM23.7779 27.253V26.5364H24.4945V27.253H23.7779ZM23.7779 27.9696V27.253H24.4945V27.9696H23.7779ZM23.7779 28.6862V27.9696H24.4945V28.6862H23.7779ZM23.7779 29.4028V28.6862H24.4945V29.4028H23.7779ZM23.7779 30.1191V29.4028H24.4945V30.1191H23.7779ZM23.7779 30.8357V30.1191H24.4945V30.8357H23.7779ZM23.7779 31.5523V30.8357H24.4945V31.5523H23.7779ZM23.7779 32.2689V31.5523H24.4945V32.2689H23.7779ZM24.4945 32.2689V31.5523H25.2111V32.2689H24.4945ZM24.4945 32.9855V32.2689H25.2111V32.9855H24.4945ZM24.4945 31.5523V30.8357H25.2111V31.5523H24.4945ZM24.4945 30.8357V30.1191H25.2111V30.8357H24.4945ZM24.4945 30.1191V29.4028H25.2111V30.1191H24.4945ZM24.4945 29.4028V28.6862H25.2111V29.4028H24.4945ZM24.4945 28.6862V27.9696H25.2111V28.6862H24.4945ZM24.4945 27.9696V27.253H25.2111V27.9696H24.4945ZM25.9275 27.253V26.5364H26.6441V27.253H25.9275ZM25.9275 27.9696V27.253H26.6441V27.9696H25.9275ZM25.9275 28.6862V27.9696H26.6441V28.6862H25.9275ZM25.9275 29.4028V28.6862H26.6441V29.4028H25.9275ZM25.9275 30.1191V29.4028H26.6441V30.1191H25.9275ZM25.9275 30.8357V30.1191H26.6441V30.8357H25.9275ZM25.9275 31.5523V30.8357H26.6441V31.5523H25.9275ZM25.9275 32.2689V31.5523H26.6441V32.2689H25.9275ZM26.6441 40.1511V39.4345H27.3607V40.1511H26.6441ZM26.6441 39.4345V38.7179H27.3607V39.4345H26.6441ZM26.6441 38.7179V38.0015H27.3607V38.7179H26.6441ZM26.6441 38.0015V37.2849H27.3607V38.0015H26.6441ZM24.4945 39.4345V38.7179H25.2111V39.4345H24.4945ZM24.4945 38.7179V38.0015H25.2111V38.7179H24.4945ZM24.4945 38.0015V37.2849H25.2111V38.0015H24.4945ZM24.4945 37.2849V36.5683H25.2111V37.2849H24.4945ZM24.4945 36.5683V35.8517H25.2111V36.5683H24.4945ZM24.4945 35.8517V35.1351H25.2111V35.8517H24.4945ZM24.4945 35.1351V34.4185H25.2111V35.1351H24.4945ZM23.7779 34.4185V33.7021H24.4945V34.4185H23.7779ZM23.7779 33.7021V32.9855H24.4945V33.7021H23.7779ZM23.7779 32.9855V32.2689H24.4945V32.9855H23.7779ZM23.7779 35.1351V34.4185H24.4945V35.1351H23.7779ZM23.7779 35.8517V35.1351H24.4945V35.8517H23.7779ZM23.7779 36.5683V35.8517H24.4945V36.5683H23.7779ZM23.7779 37.2849V36.5683H24.4945V37.2849H23.7779ZM23.7779 38.0015V37.2849H24.4945V38.0015H23.7779ZM23.7779 38.7179V38.0015H24.4945V38.7179H23.7779ZM23.7779 39.4345V38.7179H24.4945V39.4345H23.7779ZM23.7779 40.1511V39.4345H24.4945V40.1511H23.7779ZM24.4945 40.1511V39.4345H25.2111V40.1511H24.4945ZM25.2111 40.1511V39.4345H25.9275V40.1511H25.2111ZM25.2111 39.4345V38.7179H25.9275V39.4345H25.2111ZM25.9275 38.7179V38.0015H26.6441V38.7179H25.9275ZM25.9275 38.0015V37.2849H26.6441V38.0015H25.9275ZM25.9275 39.4345V38.7179H26.6441V39.4345H25.9275ZM25.9275 40.1511V39.4345H26.6441V40.1511H25.9275ZM25.2111 38.7179V38.0015H25.9275V38.7179H25.2111ZM25.2111 38.0015V37.2849H25.9275V38.0015H25.2111ZM25.2111 37.2849V36.5683H25.9275V37.2849H25.2111ZM25.2111 36.5683V35.8517H25.9275V36.5683H25.2111ZM25.2111 35.8517V35.1351H25.9275V35.8517H25.2111ZM25.2111 35.1351V34.4185H25.9275V35.1351H25.2111ZM25.2111 34.4185V33.7021H25.9275V34.4185H25.2111ZM25.2111 33.7021V32.9855H25.9275V33.7021H25.2111ZM25.2111 32.9855V32.2689H25.9275V32.9855H25.2111ZM24.4945 33.7021V32.9855H25.2111V33.7021H24.4945ZM24.4945 34.4185V33.7021H25.2111V34.4185H24.4945ZM18.762 27.253V26.5364H19.4786V27.253H18.762ZM18.0454 27.253V26.5364H18.762V27.253H18.0454ZM17.3289 27.253V26.5364H18.0454V27.253H17.3289ZM16.6123 27.253V26.5364H17.3289V27.253H16.6123ZM15.8958 27.9696V27.253H16.6123V27.9696H15.8958ZM15.8958 28.6862V27.9696H16.6123V28.6862H15.8958ZM15.8958 27.253V26.5364H16.6123V27.253H15.8958ZM16.6123 27.9696V27.253H17.3289V27.9696H16.6123ZM17.3289 27.9696V27.253H18.0454V27.9696H17.3289ZM18.0454 27.9696V27.253H18.762V27.9696H18.0454ZM18.762 27.9696V27.253H19.4786V27.9696H18.762ZM18.762 28.6862V27.9696H19.4786V28.6862H18.762ZM18.762 29.4028V28.6862H19.4786V29.4028H18.762ZM18.0454 29.4028V28.6862H18.762V29.4028H18.0454ZM17.3289 29.4028V28.6862H18.0454V29.4028H17.3289ZM16.6123 29.4028V28.6862H17.3289V29.4028H16.6123ZM15.8958 29.4028V28.6862H16.6123V29.4028H15.8958ZM16.6123 28.6862V27.9696H17.3289V28.6862H16.6123ZM17.3289 28.6862V27.9696H18.0454V28.6862H17.3289ZM18.0454 28.6862V27.9696H18.762V28.6862H18.0454ZM15.8958 37.2849V36.5683H16.6123V37.2849H15.8958ZM16.6123 37.2849V36.5683H17.3289V37.2849H16.6123ZM18.0454 37.2849V36.5683H18.762V37.2849H18.0454ZM18.0454 36.5683V35.8517H18.762V36.5683H18.0454ZM18.0454 35.8517V35.1351H18.762V35.8517H18.0454ZM18.762 35.1351V34.4185H19.4786V35.1351H18.762ZM18.762 34.4185V33.7021H19.4786V34.4185H18.762ZM18.762 33.7021V32.9855H19.4786V33.7021H18.762ZM18.762 32.9855V32.2689H19.4786V32.9855H18.762ZM18.762 32.2689V31.5523H19.4786V32.2689H18.762ZM18.762 31.5523V30.8357H19.4786V31.5523H18.762ZM18.762 30.8357V30.1191H19.4786V30.8357H18.762ZM18.762 30.1191V29.4028H19.4786V30.1191H18.762ZM18.0454 30.1191V29.4028H18.762V30.1191H18.0454ZM17.3289 30.1191V29.4028H18.0454V30.1191H17.3289ZM16.6123 30.1191V29.4028H17.3289V30.1191H16.6123ZM15.8958 30.1191V29.4028H16.6123V30.1191H15.8958ZM15.8958 30.8357V30.1191H16.6123V30.8357H15.8958ZM15.8958 32.2689V31.5523H16.6123V32.2689H15.8958ZM15.8958 32.9855V32.2689H16.6123V32.9855H15.8958ZM15.8958 33.7021V32.9855H16.6123V33.7021H15.8958ZM15.8958 34.4185V33.7021H16.6123V34.4185H15.8958ZM15.8958 35.1351V34.4185H16.6123V35.1351H15.8958ZM15.8958 35.8517V35.1351H16.6123V35.8517H15.8958ZM15.8958 36.5683V35.8517H16.6123V36.5683H15.8958ZM16.6123 33.7021V32.9855H17.3289V33.7021H16.6123ZM16.6123 32.2689V31.5523H17.3289V32.2689H16.6123ZM16.6123 31.5523V30.8357H17.3289V31.5523H16.6123ZM16.6123 30.8357V30.1191H17.3289V30.8357H16.6123ZM15.8958 31.5523V30.8357H16.6123V31.5523H15.8958ZM16.6123 35.1351V34.4185H17.3289V35.1351H16.6123ZM17.3289 35.1351V34.4185H18.0454V35.1351H17.3289ZM18.0454 35.1351V34.4185H18.762V35.1351H18.0454ZM18.0454 34.4185V33.7021H18.762V34.4185H18.0454ZM18.0454 33.7021V32.9855H18.762V33.7021H18.0454ZM18.0454 32.9855V32.2689H18.762V32.9855H18.0454ZM18.0454 32.2689V31.5523H18.762V32.2689H18.0454ZM18.0454 31.5523V30.8357H18.762V31.5523H18.0454ZM18.0454 30.8357V30.1191H18.762V30.8357H18.0454ZM17.3289 30.8357V30.1191H18.0454V30.8357H17.3289ZM17.3289 31.5523V30.8357H18.0454V31.5523H17.3289ZM17.3289 32.2689V31.5523H18.0454V32.2689H17.3289ZM17.3289 32.9855V32.2689H18.0454V32.9855H17.3289ZM17.3289 33.7021V32.9855H18.0454V33.7021H17.3289ZM17.3289 34.4185V33.7021H18.0454V34.4185H17.3289ZM16.6123 34.4185V33.7021H17.3289V34.4185H16.6123ZM16.6123 32.9855V32.2689H17.3289V32.9855H16.6123ZM16.6123 35.8517V35.1351H17.3289V35.8517H16.6123ZM16.6123 36.5683V35.8517H17.3289V36.5683H16.6123ZM17.3289 36.5683V35.8517H18.0454V36.5683H17.3289ZM17.3289 35.8517V35.1351H18.0454V35.8517H17.3289ZM18.762 35.8517V35.1351H19.4786V35.8517H18.762ZM18.762 36.5683V35.8517H19.4786V36.5683H18.762ZM18.762 37.2849V36.5683H19.4786V37.2849H18.762ZM17.3289 37.2849V36.5683H18.0454V37.2849H17.3289ZM18.762 40.1511V39.4345H19.4786V40.1511H18.762ZM18.762 39.4345V38.7179H19.4786V39.4345H18.762ZM18.0454 39.4345V38.7179H18.762V39.4345H18.0454ZM17.3289 39.4345V38.7179H18.0454V39.4345H17.3289ZM17.3289 38.7179V38.0015H18.0454V38.7179H17.3289ZM16.6123 38.7179V38.0015H17.3289V38.7179H16.6123ZM16.6123 38.0015V37.2849H17.3289V38.0015H16.6123ZM17.3289 38.0015V37.2849H18.0454V38.0015H17.3289ZM18.0454 38.0015V37.2849H18.762V38.0015H18.0454ZM18.0454 38.7179V38.0015H18.762V38.7179H18.0454ZM18.762 38.7179V38.0015H19.4786V38.7179H18.762ZM19.4786 38.7179V38.0015H20.1951V38.7179H19.4786ZM19.4786 38.0015V37.2849H20.1951V38.0015H19.4786ZM18.762 38.0015V37.2849H19.4786V38.0015H18.762ZM19.4786 37.2849V36.5683H20.1951V37.2849H19.4786ZM20.1951 38.0015V37.2849H20.9117V38.0015H20.1951ZM20.1951 38.7179V38.0015H20.9117V38.7179H20.1951ZM20.1951 39.4345V38.7179H20.9117V39.4345H20.1951ZM20.1951 40.1511V39.4345H20.9117V40.1511H20.1951ZM19.4786 40.1511V39.4345H20.1951V40.1511H19.4786ZM19.4786 39.4345V38.7179H20.1951V39.4345H19.4786ZM20.9117 40.1511V39.4345H21.6282V40.1511H20.9117ZM20.9117 39.4345V38.7179H21.6282V39.4345H20.9117ZM20.9117 38.7179V38.0015H21.6282V38.7179H20.9117ZM20.9117 38.0015V37.2849H21.6282V38.0015H20.9117ZM21.6282 40.1511V39.4345H22.3448V40.1511H21.6282ZM21.6282 39.4345V38.7179H22.3448V39.4345H21.6282ZM22.3448 39.4345V38.7179H23.0613V39.4345H22.3448ZM22.3448 38.7179V38.0015H23.0613V38.7179H22.3448ZM23.0613 38.7179V38.0015H23.7779V38.7179H23.0613ZM23.0613 38.0015V37.2849H23.7779V38.0015H23.0613ZM22.3448 38.0015V37.2849H23.0613V38.0015H22.3448ZM21.6282 38.0015V37.2849H22.3448V38.0015H21.6282ZM21.6282 38.7179V38.0015H22.3448V38.7179H21.6282ZM22.3448 40.1511V39.4345H23.0613V40.1511H22.3448ZM23.0613 39.4345V38.7179H23.7779V39.4345H23.0613ZM23.7779 36.5683V37.2849H23.0613V36.5683H23.7779Z" fill="#FCFFFC"/>
</svg>
